<svg width="22" height="21" viewBox="0 0 22 21" fill="none" xmlns="http://www.w3.org/2000/svg">
<path d="M15.0352 13.2075H14.0867L13.7505 12.8834C14.9272 11.5146 15.6356 9.73756 15.6356 7.80446C15.6356 3.494 12.1416 0 7.83113 0C3.52067 0 0.0266724 3.494 0.0266724 7.80446C0.0266724 12.1149 3.52067 15.6089 7.83113 15.6089C9.76424 15.6089 11.5413 14.9005 12.91 13.7238L13.2342 14.06V15.0086L19.2376 21L21.0267 19.211L15.0352 13.2075ZM7.83113 13.2075C4.84142 13.2075 2.42804 10.7942 2.42804 7.80446C2.42804 4.81475 4.84142 2.40137 7.83113 2.40137C10.8208 2.40137 13.2342 4.81475 13.2342 7.80446C13.2342 10.7942 10.8208 13.2075 7.83113 13.2075Z" fill="white" fill-opacity="0.8"/>
</svg>
